<svg id="Слой_1" data-name="Слой 1" xmlns="http://www.w3.org/2000/svg" viewBox="0 0 563.2 175.11"><defs><style>.cls-1{fill:#092896;}</style></defs><path class="cls-1" d="M185.9,117.56a41.57,41.57,0,0,1-17.49,30.18,268.34,268.34,0,0,1-43.68,25.82c-13.09,6.15-26.08,6.28-39.19,0-15.31-7.36-30.09-15.64-43.69-25.8-10.23-7.63-16.53-18-17.52-30.92-.84-11-.83-47.57.24-54.72,2-13.64,9.27-24.1,21.06-31.28C55.79,24.64,88.86,6.19,95.54,4.4c10.25-2.74,20.25-1,29.84,3.78,15.13,7.48,29.91,15.58,43.51,25.6A40.08,40.08,0,0,1,185.33,60.5C186.88,70.75,186.79,109,185.9,117.56ZM33.27,89.35c.56,9.51.84,17.87,1.58,26.2a31.39,31.39,0,0,0,12.77,23.09A244.13,244.13,0,0,0,90.3,163.82a33.24,33.24,0,0,0,29.43.05A284.21,284.21,0,0,0,159,141.24a38.21,38.21,0,0,0,11.77-11.77c4.43-7.16,5-15.16,5.46-23.2a251.3,251.3,0,0,0-.9-39.94c-1-10.1-5.26-18.48-13.52-24.43a271.22,271.22,0,0,0-41.4-24.14c-10.22-4.91-20.26-4.91-30.49-.07a303.56,303.56,0,0,0-41.4,24.18A29.59,29.59,0,0,0,35.42,62.44C34.07,71.7,33.88,81.12,33.27,89.35Z" transform="translate(-23.73 -3.11)"/><path class="cls-1" d="M123.21,44.46a9.51,9.51,0,0,1,5.86,3.07c5.07,5.08,10.17,10.13,15.2,15.24,4.7,4.78,4.73,10,0,14.76q-10.85,10.91-21.79,21.7c-2.35,2.32-4.69,2.3-7,0Q104.28,88,93.07,76.82c-2.48-2.49-2.61-4.72-.17-7.19q11-11.19,22.23-22.24C117,45.49,119.37,44.41,123.21,44.46Zm-.33,31.64a6,6,0,1,0-6-6h0A6.08,6.08,0,0,0,122.88,76.1Z" transform="translate(-23.73 -3.11)"/><path class="cls-1" d="M87.79,95c-2.25-2.6-2.24-2.91-.06-5.12,1.72-1.74,3.46-3.46,5.17-5.21,1.42-1.45,2.78-1.55,4.26,0,3.49,3.53,7,7,10.55,10.52,1.35,1.33,1.32,2.62,0,3.89-2.78,2.68-5.39,5.6-8.47,7.87-1.53,1.13-4,1.33-6,1.42-4.93.24-4.07,0-4.15,4.33v2.13c0,3.34-1.32,4.81-4.68,5.27h-.47c-6,.59-6,.59-6.54,6.74-.34,4-2.67,6.18-6.74,6.18H65.21c-1.82,0-2.66-.83-2.64-2.57,0-3.16,0-6.32.22-9.46a5.08,5.08,0,0,1,1.63-2.71C72.13,110.56,79.92,102.85,87.79,95Z" transform="translate(-23.73 -3.11)"/><path class="cls-1" d="M211.94,69.65h27.44V79H223.07v32.78H211.94Z" transform="translate(-23.73 -3.11)"/><path class="cls-1" d="M255.48,90.51c0-13.87,7.89-21.64,19.55-21.64s19.57,7.9,19.57,21.64-7.91,22-19.57,22S255.48,104.31,255.48,90.51Zm27.71,0c0-7.65-3.11-12.05-8.09-12.05s-8.1,4.4-8.1,12.05S270.11,103,275.1,103,283.19,98.16,283.19,90.51Z" transform="translate(-23.73 -3.11)"/><path class="cls-1" d="M313.26,91c0-14.13,9.72-22.16,20.34-22.16a18.59,18.59,0,0,1,13.09,5.57l-5.83,7.13a10.33,10.33,0,0,0-7-3.18c-4.86,0-9.2,4.54-9.2,12.18,0,7.91,3.63,12.32,9.07,12.32a10.55,10.55,0,0,0,7.7-3.57l5.83,7a17.82,17.82,0,0,1-13.87,6.2C322.59,112.52,313.26,105.41,313.26,91Z" transform="translate(-23.73 -3.11)"/><path class="cls-1" d="M366,69.65h11.14V85.72h10.11l15.73,26H391.31L380.77,94.59h-3.63v17.17H366Zm13.73,17.81,6.35-11.14c3.11-5.44,6.61-7.51,11.79-7.51a9.54,9.54,0,0,1,3.89.64l-1.81,10a6.12,6.12,0,0,0-1.95-.26c-1.94,0-3,.91-4.4,3.24l-4.28,7.32Z" transform="translate(-23.73 -3.11)"/><path class="cls-1" d="M417.33,111.89l1.93-10a6.55,6.55,0,0,0,1.81.26c2.07,0,3.5-.9,5.44-9.59,1.62-7.51,3-15.29,4.41-22.93h25.91v42.11H445.69V79h-6.22c-.91,5.31-1.81,10-2.72,14.77-2.85,14.58-6.61,18.77-14,18.77A15.05,15.05,0,0,1,417.33,111.89Z" transform="translate(-23.73 -3.11)"/><path class="cls-1" d="M479.11,69.65h11.14V85.33h12.57v9.72H490.25v16.71H479.11Zm17.23,20.86c0-13.87,7.13-21.64,18.79-21.64s19,7.9,19,21.64-7.39,22-19,22-18.77-8.21-18.77-22Zm26.44,0c0-7.65-2.6-12.05-7.65-12.05s-7.64,4.4-7.64,12.05S510.08,103,515.13,103s7.71-4.79,7.71-12.44Z" transform="translate(-23.73 -3.11)"/><path class="cls-1" d="M575.79,95.43a35.55,35.55,0,0,1-5.83.39c-10.11,0-16.2-4.27-16.2-16.07V69.65h10.89v10.1c0,5.32,1.81,7.26,6.48,7.26a20.25,20.25,0,0,0,4.66-.39v-17h11.15v42.11H575.79Z" transform="translate(-23.73 -3.11)"/></svg>